<svg xmlns="http://www.w3.org/2000/svg" width="15" height="14">
    <path fill="#3E80A9" fill-rule="evenodd" d="M14.013 13.989H1.315a.486.486 0 0 1-.476-.475c0-.255.209-.475.476-.475h12.686c.267 0 .487.22.487.475a.477.477 0 0 1-.475.475zM3.889 11.428a.462.462 0 0 1-.336.139l-2.25.012a.464.464 0 0 1-.336-.139.49.49 0 0 1-.139-.348l.011-2.259c0-.128.058-.243.14-.336l6.215-6.199L8.748.734a.49.49 0 0 1 .684 0l2.227 2.248a.49.49 0 0 1 0 .683l-7.77 7.763zM1.802 9.042l-.012 1.564 1.577-.012 5.729-5.712L7.53 3.318 1.802 9.042zm7.294-7.288l-.881.88L9.78 4.198l.881-.88-1.565-1.564z"/>
</svg>
